<svg width="90" height="90" viewBox="0 0 90 90" fill="none" xmlns="http://www.w3.org/2000/svg">
<path d="M44.8496 0C69.396 0.000123968 89.3674 19.5236 89.9854 43.8398L90 45.001C89.9998 69.8537 69.7854 90.0009 44.8496 90.001C40.2974 90.0009 35.9037 89.3249 31.7607 88.0752C43.2385 77.3547 50.4248 62.0252 50.4248 45.002C50.4248 27.9777 43.2386 12.6464 31.7598 1.92578C35.9029 0.67546 40.2971 7.0626e-05 44.8496 0ZM34.7021 64.3828L17.5469 81.4795L8.78223 72.7432L25.9365 55.6465L34.7021 64.3828ZM51.7197 12.0488C57.8879 21.1862 61.5659 32.1572 61.7666 43.9766L61.7754 44.998C61.7754 57.2087 58.0645 68.5518 51.7168 77.9531C67.112 74.7917 78.6473 61.2137 78.6475 45.001L78.6367 44.1338C78.234 28.3067 66.8381 15.155 51.7197 12.0488ZM24.2598 51.626H0V39.2705H24.2598V51.626ZM34.7031 26.5049L25.9375 35.2412L8.7832 18.1436L17.5479 9.40723L34.7031 26.5049Z" fill="#FF8361"/>
</svg>
