<svg width="48" height="48" viewBox="0 0 48 48" fill="none" xmlns="http://www.w3.org/2000/svg">
<g clip-path="url(#clip0_841_5993)">
<path d="M48 7.54199V0C35.0088 0 24.3941 10.365 23.9988 23.2556C23.6059 10.365 12.9912 0 0 0V7.54199C9.08494 7.54199 16.4764 14.9248 16.4764 24C16.4764 33.0752 9.08494 40.4557 0 40.4557V47.9977C12.9912 47.9977 23.6059 37.6327 24.0012 24.742C24.3965 37.6327 35.0112 47.9977 48.0023 47.9977V40.4557C38.9174 40.4557 31.5259 33.0729 31.5259 23.9977C31.5259 14.9225 38.9174 7.53965 48.0023 7.53965L48 7.54199Z" fill="#78BFBC"/>
</g>
<defs>
<clipPath id="clip0_841_5993">
<rect width="48" height="48" fill="white"/>
</clipPath>
</defs>
</svg>
