<svg width="48" height="49" viewBox="0 0 48 49" fill="none" xmlns="http://www.w3.org/2000/svg">
<path d="M32.227 48.7773C29.303 48.7773 26.4599 47.9688 24.0005 46.4629C21.5388 47.9665 18.698 48.7773 15.774 48.7773C7.0759 48.7773 0.000488281 41.6998 0.000488281 33.0005C0.000488281 30.0791 0.809503 27.2389 2.31196 24.7785C0.809503 22.3182 0.000488281 19.4779 0.000488281 16.5542C0.000488281 7.85491 7.0759 0.777344 15.774 0.777344C18.6957 0.777344 21.5388 1.58588 24.0005 3.09174C26.4599 1.58588 29.303 0.777344 32.227 0.777344C40.9251 0.777344 48.0005 7.85491 48.0005 16.5542C48.0005 19.4755 47.1915 22.3182 45.689 24.7785C47.1915 27.2389 48.0005 30.0791 48.0005 33.0005C48.0005 41.6998 40.9251 48.7773 32.227 48.7773ZM24.0028 37.949L26.1848 39.8673C27.8537 41.3337 29.9988 42.1423 32.227 42.1423C37.2753 42.1423 41.3804 38.0417 41.3804 33.0005C41.3804 30.7811 40.5737 28.6381 39.1059 26.9701L37.1759 24.7762L39.1059 22.5823C40.5714 20.9165 41.3781 18.7759 41.3781 16.5542C41.3781 11.513 37.2729 7.41241 32.2247 7.41241C29.9964 7.41241 27.8491 8.22095 26.1825 9.68743L24.0005 11.6057L21.8184 9.68743C20.1473 8.22095 18.0022 7.41241 15.774 7.41241C10.7257 7.41241 6.62052 11.513 6.62052 16.5542C6.62052 18.7759 7.42724 20.9165 8.89271 22.5823L10.8228 24.7762L8.89271 26.9701C7.42724 28.6381 6.62052 30.7788 6.62052 33.0005C6.62052 38.0417 10.7257 42.1423 15.774 42.1423C18.0022 42.1423 20.1473 41.3337 21.8184 39.8673L24.0005 37.949H24.0028Z" fill="#031F3D"/>
</svg>
