<svg width="48" height="48" viewBox="0 0 48 48" fill="none" xmlns="http://www.w3.org/2000/svg">
<g clip-path="url(#clip0_867_6067)">
<path d="M32.2265 48C29.3025 48 26.4594 47.1915 24 45.6856C21.5383 47.1891 18.6975 48 15.7735 48C7.07541 48 0 40.9224 0 32.2232C0 29.3018 0.809015 26.4615 2.31147 24.0012C0.809015 21.5408 0 18.6982 0 15.7768C0 7.07756 7.07541 0 15.7735 0C18.6952 0 21.5383 0.808533 24 2.3144C26.4594 0.808533 29.3025 0 32.2265 0C40.9246 0 48 7.07756 48 15.7768C48 18.6982 47.191 21.5408 45.6885 24.0012C47.191 26.4615 48 29.3018 48 32.2232C48 40.9224 40.9246 48 32.2265 48ZM24 37.1694L26.182 39.0876C27.8509 40.5541 29.996 41.3626 32.2242 41.3626C37.2725 41.3626 41.3776 37.262 41.3776 32.2209C41.3776 30.0014 40.5709 27.8585 39.1031 26.1905L37.1731 23.9965L39.1031 21.8026C40.5686 20.1369 41.3753 17.9962 41.3753 15.7745C41.3753 10.7333 37.2702 6.63275 32.2219 6.63275C29.9936 6.63275 27.8463 7.44129 26.1797 8.90777L23.9977 10.826L21.8157 8.90777C20.1445 7.44129 17.9994 6.63275 15.7712 6.63275C10.7229 6.63275 6.61774 10.7333 6.61774 15.7745C6.61774 17.9962 7.42444 20.1369 8.88992 21.8026L10.82 23.9965L8.88992 26.1905C7.42444 27.8585 6.61774 29.9991 6.61774 32.2209C6.61774 37.262 10.7229 41.3626 15.7712 41.3626C17.9994 41.3626 20.1445 40.5541 21.8157 39.0876L23.9977 37.1694H24Z" fill="#FF8361"/>
</g>
<defs>
<clipPath id="clip0_867_6067">
<rect width="48" height="48" fill="white"/>
</clipPath>
</defs>
</svg>
