<svg xmlns="http://www.w3.org/2000/svg" width="100%" height="100%" viewBox="0 0 138 32" fill="none" preserveAspectRatio="xMidYMid meet" aria-hidden="true" role="img">
<g clip-path="url(#clip0_656_972)">
<path d="M80.1362 9.20071C80.4652 9.20071 80.8004 9.226 81.1333 9.27297C84.3846 9.74695 86.6546 12.3732 86.6548 15.6577V31.0357H82.4399V15.6577C82.4398 14.2303 81.4512 13.5782 80.5249 13.4429C80.3997 13.4253 80.2741 13.4156 80.1489 13.4156C79.6632 13.4156 78.4871 13.5726 78.0562 15.0181L73.937 28.8423C73.4296 30.5461 71.8941 31.69 70.1157 31.69L70.1216 31.6919C68.3433 31.6917 66.8096 30.5481 66.3003 28.8443L62.1812 15.02C61.7502 13.5726 60.5751 13.4156 60.0894 13.4156C59.9641 13.4156 59.8367 13.4253 59.7114 13.4429C58.7851 13.5781 57.7966 14.2302 57.7964 15.6577V31.0357H53.5806V15.6577C53.5807 12.3714 55.851 9.74712 59.1021 9.27297C59.4349 9.22402 59.7702 9.20072 60.0991 9.20071C62.9803 9.20071 65.3819 11.0121 66.2183 13.8169L70.1177 26.9068L74.0181 13.8169C74.8544 11.0123 77.2553 9.2009 80.1362 9.20071ZM94.9009 11.9234L95.2358 11.6548C97.1691 10.1016 99.6708 9.24563 102.282 9.24563C105.316 9.24567 108.119 10.3814 110.169 12.4458C112.226 14.5122 113.358 17.3406 113.358 20.4077C113.358 26.7949 108.451 31.6118 101.945 31.6118C98.7757 31.6118 95.8746 30.4915 93.7788 28.4566C91.6831 26.4216 90.5299 23.6087 90.5298 20.5357V0.0180893H94.9009V11.9234ZM126.587 9.24758C133.07 9.24782 138 14.0462 138 20.4077C138 26.7694 133.094 31.6116 126.587 31.6118C120.104 31.6118 115.215 26.795 115.215 20.4077C115.215 14.0206 120.104 9.24758 126.587 9.24758ZM33.5435 21.1656C33.5435 25.1103 35.8945 27.6607 39.5317 27.6607C43.1688 27.6605 45.562 25.1122 45.562 21.1656V9.85696H49.9341V21.1656C49.9341 27.4133 45.7547 31.6103 39.5327 31.6109C33.3358 31.6106 29.1724 27.4135 29.1724 21.1656V9.85696H33.5435V21.1656ZM10.0864 1.28567C14.5893 1.28567 18.6496 2.77808 21.5171 5.48684V5.48879C24.3865 8.1976 25.9653 12.0305 25.9653 16.2788C25.9653 20.5272 24.3846 24.359 21.5171 27.0698C18.6496 29.7784 14.5892 31.271 10.0864 31.271H0.359863V1.28567H10.0864ZM101.945 13.1548C97.8591 13.1548 94.776 16.2731 94.7759 20.4077C94.7759 24.5425 97.8571 27.6607 101.945 27.6607C106.033 27.6606 109.071 24.5425 109.071 20.4077C109.071 16.2731 106.007 13.1549 101.945 13.1548ZM126.587 13.1548C122.525 13.1548 119.462 16.2731 119.461 20.4077C119.461 24.5425 122.525 27.6607 126.587 27.6607C130.649 27.6604 133.755 24.5423 133.755 20.4077C133.755 16.2732 130.675 13.1551 126.587 13.1548ZM4.99561 27.0991H10.5513C13.585 27.099 16.3329 26.0176 18.2896 24.0552V24.0572C20.2502 22.0906 21.3296 19.3265 21.3296 16.2788C21.3295 13.2313 20.25 10.4699 18.2896 8.50344C16.331 6.53898 13.5831 5.45764 10.5513 5.45754H4.99561V27.0991ZM10.5483 9.7759C12.4248 9.7759 14.0881 10.4074 15.23 11.5532C16.3776 12.7029 17.0102 14.3811 17.0103 16.2788C17.0103 18.1768 16.3778 19.8576 15.23 21.0073C14.0881 22.1531 12.4267 22.7818 10.5483 22.7818H10.5054C10.0981 22.7817 9.6987 22.7448 9.31299 22.6724C9.0467 22.6234 8.78432 22.5564 8.53174 22.4761C10.8291 21.3615 12.4116 19.0052 12.4116 16.2788C12.4115 13.5525 10.8291 11.198 8.53369 10.0816C8.78819 10.0013 9.04675 9.93519 9.31299 9.88625C9.69872 9.81381 10.0981 9.77592 10.5054 9.7759H10.5483Z" fill="#031F3D"></path>
</g>
<defs>
<clipPath id="clip0_656_972">
<rect width="138" height="32" fill="white"></rect>
</clipPath>
</defs>
</svg>