<svg width="603" height="75" viewBox="0 0 603 75" fill="none" xmlns="http://www.w3.org/2000/svg">
<path d="M39.3384 38.4174C39.3384 42.9014 37.8438 46.8717 35.1321 49.5881C32.4343 52.2951 28.5102 53.7805 24.0724 53.7805H23.9706C23.0081 53.7805 22.0641 53.6926 21.1525 53.5214C20.5232 53.4057 19.9031 53.2484 19.3062 53.0587C24.7342 50.4256 28.4732 44.8588 28.4732 38.4174C28.4732 31.9759 24.7342 26.4137 19.3108 23.7761C19.9123 23.5864 20.5232 23.429 21.1525 23.3133C22.0641 23.1421 23.0081 23.0542 23.9706 23.0542H24.0724C28.5055 23.0542 32.4343 24.5442 35.1321 27.2513C37.8438 29.9676 39.3384 33.9334 39.3384 38.4174Z" fill="#FCF6ED"/>
<path d="M49.9858 12.92C43.2112 6.52027 33.6185 2.99414 22.98 2.99414H0V73.836H22.98C33.6185 73.836 43.2112 70.3098 49.9858 63.9101C56.7605 57.5056 60.4948 48.4543 60.4948 38.4174C60.4948 28.3804 56.7651 19.3245 49.9858 12.9247V12.92ZM42.3598 56.7884C37.737 61.4251 31.2446 63.9795 24.0767 63.9795H10.9532V12.8506H24.0767C31.24 12.8506 37.7323 15.405 42.3598 20.0463C46.9919 24.6923 49.5416 31.217 49.5416 38.4174C49.5416 45.6177 46.9919 52.147 42.3598 56.793V56.7884Z" fill="#FCF6ED"/>
<path d="M92.5491 74.6414C77.9078 74.6414 68.0698 64.7247 68.0698 49.9631V23.2441H78.3983V49.9631C78.3983 59.2828 83.9513 65.3078 92.5445 65.3078C101.138 65.3078 106.792 59.2874 106.792 49.9631V23.2441H117.121V49.9631C117.121 64.7247 107.246 74.6414 92.5445 74.6414H92.5491Z" fill="#FCF6ED"/>
<path d="M239.999 74.641C232.511 74.641 225.658 71.9941 220.707 67.1861C215.755 62.3782 213.03 55.7332 213.03 48.4727V0H223.358V28.1257L224.15 27.4918C228.717 23.8222 234.626 21.8 240.795 21.8C247.962 21.8 254.584 24.4839 259.429 29.3612C264.288 34.2432 266.963 40.9253 266.963 48.1719C266.963 63.262 255.371 74.641 239.999 74.641ZM239.999 31.0364C230.346 31.0364 223.062 38.4033 223.062 48.1719C223.062 57.9405 230.341 65.3074 239.999 65.3074C249.656 65.3074 256.833 57.9405 256.833 48.1719C256.833 38.4033 249.596 31.0364 239.999 31.0364Z" fill="#FCF6ED"/>
<path d="M298.217 74.6415C282.9 74.6415 271.35 63.2626 271.35 48.1725C271.35 33.0823 282.9 21.8052 298.217 21.8052C313.534 21.8052 325.181 33.1425 325.181 48.1725C325.181 63.2024 313.59 74.6415 298.217 74.6415ZM298.217 31.037C288.62 31.037 281.382 38.4039 281.382 48.1725C281.382 57.941 288.62 65.3079 298.217 65.3079C307.814 65.3079 315.154 57.941 315.154 48.1725C315.154 38.4039 307.875 31.037 298.217 31.037Z" fill="#FCF6ED"/>
<path d="M164.817 74.831C160.615 74.831 156.992 72.1286 155.789 68.1027L146.057 35.442C145.039 32.0223 142.262 31.6521 141.115 31.6521C140.819 31.6521 140.518 31.6753 140.222 31.7169C138.033 32.0362 135.696 33.5772 135.696 36.9506V73.2808H125.738V36.9506C125.738 29.1857 131.101 22.9849 138.783 21.8651C139.569 21.7494 140.361 21.6938 141.138 21.6938C147.945 21.6938 153.618 25.9742 155.594 32.6008L164.807 63.5261L174.021 32.6008C175.997 25.9742 181.67 21.6938 188.477 21.6938C189.254 21.6938 190.046 21.754 190.832 21.8651C198.514 22.9849 203.877 29.1903 203.877 36.9506V73.2808H193.919V36.9506C193.919 33.5772 191.582 32.0362 189.393 31.7169C189.097 31.6753 188.801 31.6521 188.505 31.6521C187.357 31.6521 184.581 32.0223 183.563 35.4374L173.831 68.098C172.632 72.1239 169.005 74.8264 164.803 74.8264L164.817 74.831Z" fill="#FCF6ED"/>
<path d="M356.412 8.89404L362.224 8.91718L362.108 38.8013L398.452 38.9402L398.568 9.056L404.38 9.07914L404.13 73.6461L398.318 73.623L398.434 43.9193L362.089 43.7805L361.974 73.4842L356.162 73.461L356.412 8.89404Z" fill="#FCF6ED"/>
<path d="M459.571 49.9718L417.971 49.8099C418.475 62.2624 425.828 69.856 436.249 69.8977C444.458 69.9301 450.932 65.3396 453.449 58.2504L459.076 58.2735C457.008 67.857 448.128 74.8352 436.231 74.7889C421.747 74.7334 412.01 64.1782 412.071 48.3152C412.135 31.8044 422.135 21.9711 436.43 22.0266C449.803 22.0775 459.636 32.2625 459.585 45.7285L459.567 49.9718H459.571ZM417.994 45.0158L454.153 45.1547C453.547 34.5439 446.753 26.8623 436.42 26.8207C425.814 26.779 418.586 34.8678 417.994 45.0158Z" fill="#FCF6ED"/>
<path d="M511.894 69.3565L511.876 74.0626L508.003 74.0488C503.023 74.0303 499.988 70.9761 500.006 65.9923L500.025 61.749C497.41 70.2265 489.826 74.9928 480.881 74.9604C471.011 74.9234 463.838 69.2686 463.875 59.1206C463.912 49.8055 470.205 43.7389 482.565 43.7898L488.748 43.8129C496.679 43.8453 499.548 41.4575 499.567 37.2142C499.59 30.8514 494.347 27.0476 486.601 27.0152C478.206 26.9828 472.38 31.3882 471.515 39.5927L465.888 39.5695C466.763 28.5978 474.347 22.1703 486.619 22.2166C499.072 22.2628 505.411 28.931 505.374 38.5237L505.272 65.1825C505.263 67.8572 506.365 69.338 508.854 69.3473L511.899 69.3611L511.894 69.3565ZM499.817 42.9291H499.724C498.512 46.6125 494.722 48.6301 487.896 48.6023L482.732 48.5838C473.047 48.5468 469.706 53.9748 469.687 59.1437C469.664 64.6782 473.334 70.1339 481.82 70.1663C490.77 70.1987 499.738 64.146 499.794 50.4024L499.821 42.9291H499.817Z" fill="#FCF6ED"/>
<path d="M516.365 0.287109L521.899 0.310247L521.617 74.1044L516.083 74.0812L516.365 0.287109Z" fill="#FCF6ED"/>
<path d="M542.112 28.1489L541.992 59.7868C541.969 65.8766 544.352 69.4814 549.428 69.4999L558.007 69.5323L557.989 74.2384L548.489 74.2014C540.557 74.169 536.425 69.0834 536.457 60.5966L536.582 28.1257L525.976 28.0841L525.995 23.378L536.601 23.4196L536.652 9.5835L542.186 9.60663L542.135 23.4427L558.183 23.5029L558.165 28.209L542.117 28.1489H542.112Z" fill="#FCF6ED"/>
<path d="M562.759 0.462891L568.293 0.486028L568.192 27.2374C568.182 29.5419 568.178 31.2957 567.979 34.7061H568.164C570.677 28.7228 576.327 22.5637 585.734 22.6007C596.526 22.6423 603.046 30.4165 602.999 42.4062L602.875 74.4144L597.34 74.3912L597.46 43.216C597.502 32.795 592.356 27.515 584.605 27.4873C576.119 27.4549 568.164 33.6973 568.118 45.6871L568.007 74.2802L562.472 74.257L562.754 0.462891H562.759Z" fill="#FCF6ED"/>
</svg>
