<svg width="1304" height="162" viewBox="0 0 1304 162" fill="none" xmlns="http://www.w3.org/2000/svg">
<path fillRule="evenodd" clipRule="evenodd" d="M1051.59 48.0098C1078.5 48.1098 1092.2 62.52 1092.12 83.25L1091.9 140.86C1091.88 146.64 1094.26 149.84 1099.64 149.86L1106.21 149.889L1106.17 160.05L1097.8 160.02C1087.04 159.979 1080.48 153.38 1080.52 142.61L1080.56 133.44C1074.91 151.76 1058.52 162.06 1039.19 161.99C1017.86 161.91 1002.36 149.69 1002.44 127.76C1002.52 107.63 1016.12 94.5199 1042.83 94.6299L1056.19 94.6797C1073.33 94.7496 1079.53 89.5898 1079.57 80.4199C1079.62 66.67 1068.29 58.4499 1051.55 58.3799C1033.41 58.31 1020.82 67.8299 1018.95 85.5596L1006.79 85.5098C1008.68 61.7999 1025.07 47.9098 1051.59 48.0098ZM1079.91 92.7695C1077.29 100.73 1069.1 105.09 1054.35 105.03L1043.19 104.99C1022.26 104.91 1015.04 116.64 1015 127.81C1014.95 139.77 1022.88 151.56 1041.22 151.63C1060.56 151.7 1079.94 138.62 1080.06 108.92L1080.12 92.7695H1079.91Z" fill="black"></path>
<path d="M407.3 46.8799C408.98 46.8799 410.69 47.01 412.39 47.25C428.99 49.67 440.58 63.0798 440.58 79.8496V158.36H419.06V79.8496C419.059 72.56 414.01 69.2301 409.28 68.54C408.64 68.4501 408 68.4004 407.36 68.4004C404.88 68.4004 398.88 69.2001 396.68 76.5801L375.65 147.16C373.06 155.86 365.22 161.7 356.14 161.7L356.17 161.71C347.09 161.71 339.26 155.87 336.66 147.17L315.63 76.5898C313.43 69.2002 307.43 68.4004 304.95 68.4004C304.31 68.4004 303.66 68.45 303.02 68.54C298.29 69.2302 293.24 72.5601 293.24 79.8496V158.36H271.72V79.8496C271.72 63.0698 283.31 49.67 299.91 47.25C301.61 47 303.32 46.8799 305 46.8799C319.71 46.8799 331.97 56.1302 336.24 70.4502L356.15 137.28L376.06 70.4502C380.33 56.1303 392.59 46.88 407.3 46.8799Z" fill="black"></path>
<path fillRule="evenodd" clipRule="evenodd" d="M943.13 47.5996C972.03 47.7096 993.28 69.7203 993.17 98.8203L993.13 107.989L903.24 107.64C904.33 134.55 920.22 150.96 942.74 151.05C960.48 151.12 974.47 141.2 979.91 125.88L992.07 125.93C987.6 146.64 968.41 161.72 942.7 161.62C911.4 161.5 890.36 138.69 890.49 104.41C890.63 68.7302 912.24 47.4797 943.13 47.5996ZM943.11 57.96C920.19 57.87 904.57 75.3503 903.29 97.2803L981.43 97.5801C980.12 74.6502 965.44 58.0501 943.11 57.96Z" fill="black"></path>
<path d="M200 161.3H199.99L199.995 161.299L200 161.3Z" fill="black"></path>
<path fillRule="evenodd" clipRule="evenodd" d="M482.68 60.7803L484.39 59.4102C494.26 51.4802 507.03 47.1104 520.36 47.1104C535.85 47.1104 550.16 52.9103 560.63 63.4502C571.13 74.0001 576.91 88.4398 576.91 104.1C576.91 136.71 551.86 161.3 518.64 161.3C502.46 161.3 487.65 155.58 476.95 145.19C466.25 134.8 460.36 120.44 460.36 104.75V0H482.68V60.7803ZM518.64 67.0703C497.78 67.0705 482.04 82.9899 482.04 104.1C482.04 125.209 497.77 141.13 518.64 141.13C539.51 141.13 555.021 125.21 555.021 104.1C555.02 82.9898 539.38 67.0703 518.64 67.0703Z" fill="black"></path>
<path fillRule="evenodd" clipRule="evenodd" d="M644.45 47.1201C677.55 47.1202 702.72 71.6199 702.72 104.1C702.72 136.58 677.67 161.3 644.45 161.3C611.35 161.3 586.39 136.71 586.39 104.1C586.39 71.4898 611.35 47.1201 644.45 47.1201ZM644.45 67.0703C623.71 67.0703 608.071 82.9898 608.07 104.1C608.07 125.21 623.71 141.13 644.45 141.13C665.19 141.13 681.05 125.21 681.05 104.1C681.05 82.9899 665.32 67.0704 644.45 67.0703Z" fill="black"></path>
<path d="M169.42 107.97C169.42 128.11 181.42 141.13 199.99 141.13C218.56 141.13 230.78 128.12 230.78 107.97V50.2305H253.1V107.97C253.1 139.868 231.762 161.297 199.995 161.299C168.358 161.297 147.1 139.868 147.1 107.97V50.2305H169.42V107.97Z" fill="black"></path>
<path d="M1228.09 1.0498L1227.87 58.8604C1227.85 63.8402 1227.84 67.6302 1227.41 75H1227.81C1233.24 62.0701 1245.45 48.7598 1265.78 48.8398C1289.1 48.93 1303.19 65.7299 1303.09 91.6396L1302.82 160.81L1290.86 160.76L1291.12 93.3896C1291.21 70.8699 1280.09 59.4604 1263.34 59.4004C1245 59.3305 1227.81 72.8205 1227.71 98.7305L1227.47 160.52L1215.51 160.47L1216.12 1H1216.13L1228.09 1.0498Z" fill="black"></path>
<path d="M1171.67 20.7598L1171.56 50.6602L1206.24 50.79L1206.2 60.96L1171.52 60.8301H1171.51L1171.25 129.2C1171.2 142.36 1176.35 150.15 1187.32 150.19L1205.86 150.26L1205.82 160.43L1185.29 160.35C1168.15 160.28 1159.22 149.29 1159.29 130.95L1159.56 60.7803L1136.64 60.6904L1136.68 50.5195L1159.6 50.6104L1159.71 20.71L1171.67 20.7598Z" fill="black"></path>
<path d="M1127.83 0.669922L1127.22 160.14L1115.26 160.09L1115.87 0.620117L1127.83 0.669922Z" fill="black"></path>
<path d="M52.0195 49.8203C61.5994 49.8203 70.0899 53.0398 75.9199 58.8896C81.7798 64.7596 85.0097 73.3297 85.0098 83.0195C85.0098 92.7095 81.7799 101.29 75.9199 107.16C70.0899 113.01 61.6095 116.22 52.0195 116.22H51.7998C49.7199 116.22 47.6799 116.03 45.71 115.66C44.35 115.41 43.0097 115.07 41.7197 114.66C53.4497 108.97 61.5303 96.9395 61.5303 83.0195C61.5301 69.0999 53.4502 57.0799 41.7305 51.3799C43.0303 50.9699 44.3501 50.6299 45.71 50.3799C47.6799 50.0099 49.7199 49.8203 51.7998 49.8203H52.0195Z" fill="black"></path>
<path fillRule="evenodd" clipRule="evenodd" d="M49.6602 6.46973C72.6499 6.46976 93.3796 14.0901 108.02 27.9199V27.9297C122.669 41.7596 130.73 61.3297 130.73 83.0195C130.73 104.71 122.66 124.27 108.02 138.11C93.3796 151.94 72.6499 159.56 49.6602 159.56H0V6.46973H49.6602ZM23.6699 138.26H52.0303C67.5202 138.26 81.5501 132.74 91.54 122.72V122.73C101.55 112.69 107.06 98.5795 107.06 83.0195C107.059 67.4598 101.55 53.3602 91.54 43.3203C81.5401 33.2904 67.5102 27.7696 52.0303 27.7695H23.6699V138.26Z" fill="black"></path>
<path d="M782.771 19.2695L782.521 83.8496L861.06 84.1504L861.31 19.5703L873.87 19.6201L873.33 159.15L860.771 159.1L861.021 94.9102L782.48 94.6104L782.23 158.8L769.67 158.75L770.21 19.2197L782.771 19.2695Z" fill="black"></path>
<path d="M1106.22 149.89L1106.21 149.889L1106.21 149.88L1106.22 149.89Z" fill="black"></path>
</svg>