<svg width="600" height="76" viewBox="0 0 600 76" fill="none" xmlns="http://www.w3.org/2000/svg">
<path d="M39.1426 39.0045C39.1426 43.4662 37.6553 47.4168 34.9571 50.1196C32.2728 52.8132 28.3682 54.2913 23.9525 54.2913H23.8512C22.8935 54.2913 21.9542 54.2038 21.0471 54.0334C20.4209 53.9183 19.8039 53.7617 19.21 53.573C24.611 50.953 28.3314 45.4139 28.3314 39.0045C28.3314 32.5951 24.611 27.0606 19.2146 24.4361C19.8131 24.2473 20.4209 24.0907 21.0471 23.9756C21.9542 23.8053 22.8935 23.7178 23.8512 23.7178H23.9525C28.3636 23.7178 32.2728 25.2004 34.9571 27.894C37.6553 30.5968 39.1426 34.5428 39.1426 39.0045Z" fill="#031F3D"/>
<path d="M49.7372 13.6334C42.9963 7.26542 33.4513 3.75684 22.8656 3.75684H0V74.2462H22.8656C33.4513 74.2462 42.9963 70.7376 49.7372 64.3697C56.4781 57.9971 60.1938 48.9908 60.1938 39.0038C60.1938 29.0168 56.4827 20.0059 49.7372 13.638V13.6334ZM42.149 57.2834C37.5492 61.8971 31.0892 64.4387 23.9569 64.4387H10.8987V13.5643H23.9569C31.0846 13.5643 37.5446 16.1059 42.149 20.7242C46.7581 25.347 49.2951 31.8393 49.2951 39.0038C49.2951 46.1683 46.7581 52.6652 42.149 57.288V57.2834Z" fill="#031F3D"/>
<path d="M92.0884 75.0478C77.52 75.0478 67.731 65.1804 67.731 50.4923V23.9062H78.0081V50.4923C78.0081 59.7656 83.5334 65.7606 92.0838 65.7606C100.634 65.7606 106.261 59.7702 106.261 50.4923V23.9062H116.538V50.4923C116.538 65.1804 106.712 75.0478 92.0838 75.0478H92.0884Z" fill="#031F3D"/>
<path d="M238.804 75.047C231.354 75.047 224.535 72.4132 219.609 67.6292C214.682 62.8452 211.97 56.2332 211.97 49.0088V0.777344H222.247V28.7631L223.034 28.1323C227.579 24.481 233.459 22.4689 239.596 22.4689C246.729 22.4689 253.318 25.1394 258.138 29.9925C262.973 34.8502 265.634 41.499 265.634 48.7096C265.634 63.7246 254.1 75.047 238.804 75.047ZM238.804 31.6593C229.2 31.6593 221.952 38.9896 221.952 48.7096C221.952 58.4295 229.195 65.7598 238.804 65.7598C248.414 65.7598 255.555 58.4295 255.555 48.7096C255.555 38.9896 248.354 31.6593 238.804 31.6593Z" fill="#031F3D"/>
<path d="M296.733 75.0471C281.493 75.0471 270 63.7248 270 48.7097C270 33.6947 281.493 22.4736 296.733 22.4736C311.974 22.4736 323.563 33.7545 323.563 48.7097C323.563 63.6649 312.029 75.0471 296.733 75.0471ZM296.733 31.6595C287.184 31.6595 279.982 38.9898 279.982 48.7097C279.982 58.4297 287.184 65.76 296.733 65.76C306.283 65.76 313.586 58.4297 313.586 48.7097C313.586 38.9898 306.343 31.6595 296.733 31.6595Z" fill="#031F3D"/>
<path d="M163.996 75.2361C159.815 75.2361 156.21 72.5471 155.013 68.5412L145.33 36.0431C144.317 32.6404 141.554 32.272 140.412 32.272C140.118 32.272 139.818 32.2951 139.524 32.3365C137.346 32.6542 135.021 34.1875 135.021 37.5441V73.6936H125.112V37.5441C125.112 29.8179 130.448 23.6479 138.092 22.5336C138.874 22.4185 139.662 22.3633 140.435 22.3633C147.209 22.3633 152.854 26.6224 154.82 33.2159L163.987 63.9874L173.155 33.2159C175.121 26.6224 180.766 22.3633 187.539 22.3633C188.312 22.3633 189.1 22.4231 189.882 22.5336C197.526 23.6479 202.862 29.8225 202.862 37.5441V73.6936H192.954V37.5441C192.954 34.1875 190.628 32.6542 188.45 32.3365C188.156 32.2951 187.861 32.272 187.566 32.272C186.425 32.272 183.662 32.6404 182.649 36.0385L172.966 68.5366C171.773 72.5425 168.163 75.2315 163.983 75.2315L163.996 75.2361Z" fill="#031F3D"/>
<path d="M354.639 9.62695L360.422 9.64998L360.307 39.3854L396.47 39.5236L396.585 9.78811L402.368 9.81113L402.12 74.0569L396.337 74.0339L396.452 44.478L360.288 44.3398L360.173 73.8957L354.39 73.8727L354.639 9.62695Z" fill="#031F3D"/>
<path d="M457.285 50.5008L415.891 50.3396C416.393 62.7302 423.71 70.2861 434.079 70.3275C442.247 70.3597 448.689 65.7921 451.194 58.7381L456.793 58.7611C454.735 68.2969 445.899 75.2404 434.061 75.1944C419.649 75.1391 409.961 64.6364 410.021 48.8524C410.085 32.4238 420.035 22.6393 434.259 22.6946C447.565 22.7452 457.35 32.8796 457.299 46.2785L457.281 50.5008H457.285ZM415.914 45.5694L451.894 45.7076C451.29 35.1496 444.531 27.5062 434.249 27.4648C423.696 27.4233 416.504 35.4719 415.914 45.5694Z" fill="#031F3D"/>
<path d="M509.348 69.7895L509.329 74.4722L505.475 74.4584C500.521 74.4399 497.501 71.401 497.519 66.442L497.537 62.2198C494.936 70.6551 487.389 75.3977 478.489 75.3654C468.668 75.3286 461.531 69.702 461.568 59.6044C461.604 50.3357 467.866 44.2993 480.165 44.3499L486.316 44.373C494.208 44.4052 497.063 42.0293 497.082 37.807C497.105 31.4759 491.888 27.6911 484.18 27.6588C475.827 27.6266 470.03 32.01 469.169 40.1737L463.57 40.1507C464.441 29.2336 471.987 22.838 484.198 22.884C496.589 22.9301 502.897 29.5651 502.86 39.1101L502.759 65.6363C502.75 68.2976 503.845 69.771 506.323 69.7803L509.352 69.7941L509.348 69.7895ZM497.33 43.4935H497.238C496.032 47.1586 492.261 49.1662 485.469 49.1385L480.331 49.1201C470.693 49.0833 467.369 54.4843 467.351 59.6275C467.328 65.1344 470.979 70.563 479.424 70.5952C488.329 70.6275 497.252 64.6049 497.307 50.9297L497.335 43.4935H497.33Z" fill="#031F3D"/>
<path d="M513.796 1.06348L519.302 1.0865L519.022 74.5135L513.515 74.4905L513.796 1.06348Z" fill="#031F3D"/>
<path d="M539.415 28.7865L539.295 60.267C539.272 66.3265 541.643 69.9133 546.694 69.9318L555.231 69.964L555.212 74.6467L545.759 74.6099C537.867 74.5776 533.756 69.5174 533.788 61.0728L533.912 28.7635L523.359 28.722L523.377 24.0393L533.931 24.0808L533.981 10.3135L539.488 10.3365L539.438 24.1038L555.406 24.1636L555.387 28.8463L539.419 28.7865H539.415Z" fill="#031F3D"/>
<path d="M559.959 1.23828L565.466 1.2613L565.365 27.8796C565.356 30.1726 565.351 31.9177 565.153 35.3111H565.337C567.838 29.3576 573.46 23.2291 582.82 23.2659C593.558 23.3074 600.046 31.0428 599.999 42.9729L599.875 74.8218L594.368 74.7988L594.488 43.7787C594.529 33.4095 589.409 28.1558 581.697 28.1282C573.252 28.096 565.337 34.3074 565.291 46.2375L565.181 74.6883L559.674 74.6653L559.955 1.23828H559.959Z" fill="#031F3D"/>
</svg>
