<svg width="70" height="70" viewBox="0 0 70 70" fill="none" xmlns="http://www.w3.org/2000/svg">
<path d="M34.8848 0.384613C54.066 0.384692 69.616 15.8825 69.6162 34.9998C69.6162 54.1174 54.0662 69.615 34.8848 69.6151C31.3812 69.6151 27.9999 69.0949 24.8115 68.1327C33.4601 60.0558 38.9402 48.5794 39.1621 35.8065C39.1679 35.5381 39.1729 35.2687 39.1729 34.9989C39.1728 34.7286 39.1679 34.4591 39.1621 34.1903C38.9395 21.419 33.4608 9.94334 24.8135 1.86703C28.0011 0.904795 31.3819 0.384642 34.8848 0.384613ZM27.0781 49.909L13.8828 63.0604L7.14062 56.3407L20.3359 43.1883L27.0781 49.909ZM40.5264 9.89536C45.2895 17.0858 48.0672 25.7176 48.0674 34.9989C48.0674 44.2806 45.2899 52.9138 40.5264 60.1053C52.099 57.5409 60.7217 47.2546 60.7217 34.9998L60.7129 34.3377C60.4087 22.3762 51.8898 12.4135 40.5264 9.89536ZM19.0459 40.0956H0.384766V30.5916H19.0459V40.0956ZM27.0791 20.7733L20.3369 27.494L7.1416 14.3426L13.8838 7.62192L27.0791 20.7733Z" fill="#FF8361"/>
</svg>
