<svg width="48" height="49" viewBox="0 0 48 49" fill="none" xmlns="http://www.w3.org/2000/svg">
<path d="M24.0005 0.777344C10.7673 0.777344 0.000488281 11.5442 0.000488281 24.7773C0.000488281 38.0105 10.7673 48.7773 24.0005 48.7773C37.2337 48.7773 48.0005 38.0105 48.0005 24.7773C48.0005 11.5442 37.2337 0.777344 24.0005 0.777344ZM6.62054 24.7773C6.62054 15.194 14.4171 7.3974 24.0005 7.3974C25.281 7.3974 26.5292 7.5384 27.7335 7.8019C23.2932 12.2515 20.6928 18.3515 20.6928 24.7773C20.6928 31.2032 23.2955 37.3032 27.7335 41.7528C26.5316 42.0163 25.2834 42.1573 24.0005 42.1573C14.4171 42.1573 6.62054 34.3607 6.62054 24.7773ZM34.3397 38.7386C29.9618 35.4818 27.3105 30.2971 27.3105 24.7797C27.3105 19.2622 29.9618 14.0775 34.3397 10.8207C38.6067 13.9897 41.3781 19.068 41.3781 24.7797C41.3781 30.4913 38.6067 35.5696 34.3397 38.7386Z" fill="#031F3D"/>
</svg>
