<svg width="33" height="33" viewBox="0 0 33 33" fill="none" xmlns="http://www.w3.org/2000/svg">
<path d="M22.1557 33C20.1455 33 18.1908 32.4441 16.5 31.4089C14.8076 32.4425 12.8545 33 10.8443 33C4.86435 33 0 28.1342 0 22.1534C0 20.145 0.556198 18.1923 1.58914 16.5008C0.556198 14.8093 0 12.8566 0 10.8466C0 4.86582 4.86435 0 10.8443 0C12.8529 0 14.8076 0.555867 16.5 1.59115C18.1908 0.555867 20.1455 0 22.1557 0C28.1357 0 33 4.86582 33 10.8466C33 12.855 32.4438 14.8093 31.4109 16.5008C32.4438 18.1923 33 20.145 33 22.1534C33 28.1342 28.1357 33 22.1557 33ZM16.5016 25.5555L18.0017 26.8743C19.1491 27.8825 20.6238 28.4384 22.1557 28.4384C25.6264 28.4384 28.4487 25.6192 28.4487 22.1534C28.4487 20.6276 27.8941 19.1543 26.885 18.0075L25.5581 16.4992L26.885 14.9909C27.8925 13.8457 28.4471 12.374 28.4471 10.8466C28.4471 7.38076 25.6248 4.56161 22.1541 4.56161C20.6222 4.56161 19.1459 5.11748 18.0001 6.12568L16.5 7.44447L14.9998 6.12568C13.8509 5.11748 12.3762 4.56161 10.8443 4.56161C7.37359 4.56161 4.55127 7.38076 4.55127 10.8466C4.55127 12.374 5.10589 13.8457 6.1134 14.9909L7.44033 16.4992L6.1134 18.0075C5.10589 19.1543 4.55127 20.626 4.55127 22.1534C4.55127 25.6192 7.37359 28.4384 10.8443 28.4384C12.3762 28.4384 13.8509 27.8825 14.9998 26.8743L16.5 25.5555H16.5016Z" fill="#FF8361"/>
</svg>
