<svg width="14" height="14" viewBox="0 0 14 14" fill="none" xmlns="http://www.w3.org/2000/svg">
<mask id="path-1-inside-1_97_711" fill="white">
<path d="M7.2407 14C6.45519 14 5.70131 13.86 5 13.6048C7.01602 12.159 8.3376 9.74068 8.33765 7.00002C8.33765 4.25975 7.01672 1.84111 5.0012 0.395234C5.70222 0.140331 6.45557 0 7.2407 0C10.9738 6.36365e-05 14 3.13401 14 7.00002C14 10.866 10.9737 14 7.2407 14Z"/>
</mask>
<path d="M7.2407 14C6.45519 14 5.70131 13.86 5 13.6048C7.01602 12.159 8.3376 9.74068 8.33765 7.00002C8.33765 4.25975 7.01672 1.84111 5.0012 0.395234C5.70222 0.140331 6.45557 0 7.2407 0C10.9738 6.36365e-05 14 3.13401 14 7.00002C14 10.866 10.9737 14 7.2407 14Z" fill="#FF8360"/>
<path d="M5 13.6048L-11.2533 -9.05837L-54.2001 21.7416L-4.53616 39.8127L5 13.6048ZM8.33765 7.00002L36.2265 7.00052V7.00002H8.33765ZM5.0012 0.395234L-4.52925 -25.8147L-54.2021 -7.75267L-11.2552 23.0562L5.0012 0.395234ZM7.2407 0L7.24117 -27.8889H7.2407V0ZM7.2407 14V-13.8889C9.79625 -13.8889 12.2655 -13.4293 14.5362 -12.603L5 13.6048L-4.53616 39.8127C-0.862887 41.1493 3.11413 41.8889 7.2407 41.8889V14ZM5 13.6048L21.2533 36.268C30.4939 29.6409 36.2263 18.8259 36.2265 7.00052L8.33765 7.00002L-19.5512 6.99952C-19.5511 0.655418 -16.4619 -5.32296 -11.2533 -9.05837L5 13.6048ZM8.33765 7.00002H36.2265C36.2265 -4.81968 30.4995 -15.6359 21.2576 -22.2658L5.0012 0.395234L-11.2552 23.0562C-16.466 19.3181 -19.5512 13.3392 -19.5512 7.00002H8.33765ZM5.0012 0.395234L14.5317 26.6052C12.2744 27.426 9.80697 27.8889 7.2407 27.8889V0V-27.8889C3.10418 -27.8889 -0.869923 -27.1453 -4.52925 -25.8147L5.0012 0.395234ZM7.2407 0L7.24022 27.8889C-5.34041 27.8887 -13.8889 17.609 -13.8889 7.00002H14H41.8889C41.8889 -11.341 27.288 -27.8885 7.24117 -27.8889L7.2407 0ZM14 7.00002H-13.8889C-13.8889 -3.6091 -5.34034 -13.8889 7.2407 -13.8889V14V41.8889C27.2877 41.8889 41.8889 25.3412 41.8889 7.00002H14Z" fill="#FF8361" mask="url(#path-1-inside-1_97_711)"/>
<circle cx="7" cy="7" r="6.5" stroke="#FF8360"/>
</svg>
