<svg width="48" height="49" viewBox="0 0 48 49" fill="none" xmlns="http://www.w3.org/2000/svg">
<path d="M27.3101 48.7764H20.6899V35.8213H27.3101V48.7764ZM43.313 39.4082L38.6313 44.0889L29.4712 34.9287L34.1519 30.2471L43.313 39.4082ZM18.5317 34.9248L9.37061 44.0859L4.68994 39.4053L13.8511 30.2441L18.5317 34.9248ZM12.9546 28.0889H-0.000488281V21.4697H12.9546V28.0889ZM48.0005 28.0889H35.0454V21.4697H48.0005V28.0889ZM43.313 10.1504L34.1519 19.3115L29.4712 14.6309L38.6313 5.46973L43.313 10.1504ZM18.5317 14.6279L13.8511 19.3086L4.68994 10.1484L9.37061 5.4668L18.5317 14.6279ZM27.3101 13.7324H20.6899V0.777344H27.3101V13.7324Z" fill="#031F3D"/>
</svg>
